<!-- Generated by scripts/build-docs-site.py; do not edit manually. -->
<svg xmlns="http://www.w3.org/2000/svg" style="display:none" fill="none" stroke="currentColor" stroke-width="1.8" stroke-linecap="round" stroke-linejoin="round">
<symbol id="icon-build" viewBox="0 0 24 24"><path d="M14 4 20 10"/><path d="M16 2l6 6-9.5 9.5a3 3 0 0 1-4.2 0l-1.8-1.8a3 3 0 0 1 0-4.2L16 2Z"/><path d="M5 19l-2 2"/></symbol>
<symbol id="icon-catalog" viewBox="0 0 24 24"><rect x="4" y="4" width="6" height="6" rx="1.5"/><rect x="14" y="4" width="6" height="6" rx="1.5"/><rect x="4" y="14" width="6" height="6" rx="1.5"/><rect x="14" y="14" width="6" height="6" rx="1.5"/></symbol>
<symbol id="icon-learn" viewBox="0 0 24 24"><path d="M4 7a8 8 0 0 1 13.7-3.2"/><path d="M18 4v5h-5"/><path d="M20 17a8 8 0 0 1-13.7 3.2"/><path d="M6 20v-5h5"/></symbol>
<symbol id="icon-operate" viewBox="0 0 24 24"><circle cx="12" cy="12" r="8"/><circle cx="12" cy="12" r="3"/><path d="M12 2v3"/><path d="M12 19v3"/><path d="M2 12h3"/><path d="M19 12h3"/></symbol>
<symbol id="icon-plan" viewBox="0 0 24 24"><path d="M12 3 4 20l8-4 8 4-8-17Z"/><path d="M12 8v8"/></symbol>
<symbol id="icon-repair" viewBox="0 0 24 24"><path d="M12 3 5 6v5.5c0 4.5 2.9 8.3 7 9.5 4.1-1.2 7-5 7-9.5V6l-7-3Z"/><path d="m8.8 12.2 2.1 2.1 4.5-4.6"/></symbol>
<symbol id="icon-review" viewBox="0 0 24 24"><path d="M2.5 12s3.5-6.5 9.5-6.5 9.5 6.5 9.5 6.5-3.5 6.5-9.5 6.5S2.5 12 2.5 12Z"/><circle cx="12" cy="12" r="3"/></symbol>
<symbol id="icon-ship" viewBox="0 0 24 24"><path d="M4 12h14"/><path d="m13 7 5 5-5 5"/><path d="M4 5h5"/><path d="M4 19h5"/></symbol>
<symbol id="icon-specialist" viewBox="0 0 24 24"><circle cx="12" cy="8" r="3.5"/><path d="M5 20a7 7 0 0 1 14 0"/><path d="M19 5v4"/><path d="M17 7h4"/></symbol>
<symbol id="icon-verify" viewBox="0 0 24 24"><circle cx="12" cy="12" r="8"/><path d="m8.5 12.5 2.4 2.4 4.8-5.2"/></symbol>
</svg>
