<!-- Generated by scripts/build-docs-site.py; do not edit manually. -->
<svg xmlns="http://www.w3.org/2000/svg" style="display:none" fill="currentColor" stroke="none">
<symbol id="icon-build" viewBox="0 0 24 24"><path d="M14.7 6.3l3-3a3 3 0 0 1 .9 3.7l-2.1 2.1 3.4 3.4-2.4 2.4-3.4-3.4-7.8 7.8a2.1 2.1 0 0 1-3-3l7.8-7.8-2.8-2.8 2.4-2.4 4 4Z"/></symbol>
<symbol id="icon-catalog" viewBox="0 0 24 24"><path d="M4 5.5A1.5 1.5 0 0 1 5.5 4h4A1.5 1.5 0 0 1 11 5.5v4A1.5 1.5 0 0 1 9.5 11h-4A1.5 1.5 0 0 1 4 9.5v-4Zm9 0A1.5 1.5 0 0 1 14.5 4h4A1.5 1.5 0 0 1 20 5.5v4a1.5 1.5 0 0 1-1.5 1.5h-4A1.5 1.5 0 0 1 13 9.5v-4Zm-9 9A1.5 1.5 0 0 1 5.5 13h4a1.5 1.5 0 0 1 1.5 1.5v4A1.5 1.5 0 0 1 9.5 20h-4A1.5 1.5 0 0 1 4 18.5v-4Zm9 0a1.5 1.5 0 0 1 1.5-1.5h4a1.5 1.5 0 0 1 1.5 1.5v4a1.5 1.5 0 0 1-1.5 1.5h-4a1.5 1.5 0 0 1-1.5-1.5v-4Z"/></symbol>
<symbol id="icon-learn" viewBox="0 0 24 24"><path d="M5 5.7A8.5 8.5 0 0 1 19.3 9H16l4.5 4.5L25 9h-3.2A11 11 0 0 0 3.6 4.2L5 5.7Zm14 12.6A8.5 8.5 0 0 1 4.7 15H8l-4.5-4.5L-1 15h3.2a11 11 0 0 0 18.2 4.8L19 18.3Z" transform="translate(0 0) scale(.96)"/></symbol>
<symbol id="icon-operate" viewBox="0 0 24 24"><path d="M12 21a9 9 0 1 0 0-18 9 9 0 0 0 0 18Zm0-3.5a5.5 5.5 0 1 0 0-11 5.5 5.5 0 0 0 0 11Zm0-3a2.5 2.5 0 1 0 0-5 2.5 2.5 0 0 0 0 5Z"/><path d="M12 2v4M12 18v4M2 12h4M18 12h4"/></symbol>
<symbol id="icon-plan" viewBox="0 0 24 24"><path d="M12 3 4 20l8-3 8 3-8-17Zm0 4.8 3.3 8.3L12 15l-3.3 1.1L12 7.8Z"/></symbol>
<symbol id="icon-repair" viewBox="0 0 24 24"><path d="M12 3 5 6v5.5c0 4.5 2.9 8.5 7 9.7 4.1-1.2 7-5.2 7-9.7V6l-7-3Zm3.8 7.1-4.5 4.5-2.1-2.1-1.4 1.4 3.5 3.5 5.9-5.9-1.4-1.4Z"/></symbol>
<symbol id="icon-review" viewBox="0 0 24 24"><path d="M2.5 12s3.5-6.5 9.5-6.5 9.5 6.5 9.5 6.5-3.5 6.5-9.5 6.5S2.5 12 2.5 12Zm9.5 3.2a3.2 3.2 0 1 0 0-6.4 3.2 3.2 0 0 0 0 6.4Z"/></symbol>
<symbol id="icon-ship" viewBox="0 0 24 24"><path d="M4 12h12.2l-4.6-4.6L13 6l7 7-7 7-1.4-1.4 4.6-4.6H4v-2Z"/><path d="M4 5h5v2H6v10h3v2H4V5Z"/></symbol>
<symbol id="icon-specialist" viewBox="0 0 24 24"><path d="M12 12a4 4 0 1 0 0-8 4 4 0 0 0 0 8Zm-7 8a7 7 0 0 1 14 0H5Zm14.5-12.5 1.8 1.1-1.8 1.1v2.1l-1.8-1.1-1.8 1.1V9.7l-1.8-1.1 1.8-1.1V5.4l1.8 1.1 1.8-1.1v2.1Z"/></symbol>
<symbol id="icon-verify" viewBox="0 0 24 24"><path d="M12 21a9 9 0 1 0 0-18 9 9 0 0 0 0 18Zm-1.1-5.2-3.7-3.7 1.4-1.4 2.3 2.3 4.9-4.9 1.4 1.4-6.3 6.3Z"/></symbol>
</svg>
